<?xml version="1.0" encoding="UTF-8"?><svg id="Capa_1" xmlns="http://www.w3.org/2000/svg" viewBox="0 0 494.298 503.489"><defs><style>.cls-1{fill:#222221;font-family:TwCenMT-Condensed, 'Tw Cen MT Condensed';font-size:85.142px;stroke:#222221;stroke-miterlimit:10;stroke-width:.547px;}.cls-2{fill:#fff;}.cls-3{fill:#ffed00;}</style></defs><path class="cls-2" d="M195.394,112.462c-.638,1.199-1.053,1.973-1.243,2.321-.191,.348-.427,.704-.706,1.066-.279,.364-.609,.635-.989,.811l-.503,.237-.887-.321c.202-1.838,.172-3.691-.091-5.559-.262-1.867-.645-3.337-1.147-4.41-.513-1.095-1.022-1.775-1.53-2.043-.507-.267-1.226-.289-2.159-.071,.242-.822,.258-1.457,.049-1.904-.272-.58-.787-.892-1.542-.933-.755-.041-1.658,.184-2.709,.677-1.475,.692-2.855,1.905-4.142,3.638-1.286,1.734-2.33,3.709-3.131,5.924-.801,2.217-1.269,4.418-1.401,6.606-.109,1.805,.07,3.336,.506,4.625-1.342,4.179-2.609,6.682-3.799,7.468-1.195,.789-2.111,.699-2.751-.27-.462-.7-.777-1.986-.947-3.855-.169-1.869-.096-3.751,.222-5.646,.288-1.58,.456-2.748,.504-3.505,.048-.756-.071-1.351-.356-1.783-.448-.68-1.011-1.285-1.686-1.815-.676-.53-1.25-.772-1.722-.727-.22,.027-.546,.182-.978,.468-1.112,.734-3.573,2.831-7.382,6.292-.068-1.493-.218-2.415-.449-2.764-.258-.391-.594-.452-1.006-.179-.268,.176-.498,.432-.691,.766-.551,.778-.954,1.96-1.208,3.548-.254,1.587-.315,3.151-.186,4.691,.13,1.542,.439,2.683,.929,3.424,.436,.661,.91,1.056,1.427,1.188,.517,.133,1.179,.095,1.987-.114,.031,1.148-.051,2.598-.234,4.317l-.029-.033c-.777,4.76-1.731,7.637-2.861,8.631-1.075,.946-1.996,.983-2.762,.111-.555-.63-1.044-1.859-1.47-3.688-.424-1.828-.611-3.704-.558-5.624,.068-1.604,.073-2.784,.017-3.54s-.256-1.328-.598-1.718c-.539-.611-1.179-1.133-1.92-1.565-.743-.433-1.344-.594-1.806-.483-.214,.057-.515,.255-.903,.598-1.002,.88-3.149,3.296-6.445,7.248-.274-1.469-.549-2.361-.826-2.676-.31-.352-.65-.366-1.021-.04-.241,.213-.434,.498-.579,.856-.438,.845-.676,2.072-.708,3.68-.033,1.606,.121,3.164,.462,4.672s.805,2.596,1.391,3.263c.521,.593,1.048,.921,1.577,.98,.529,.061,1.18-.068,1.953-.387,.215,1.291,.343,2.969,.386,5.036l.092,.105c.048,4.113-.417,6.787-1.405,7.996-1.063,1.3-2.3,1.372-3.715,.214-.86-.702-1.434-1.482-1.722-2.339-.287-.856-.679-2.26-1.173-4.211-.493-1.949-.97-3.111-1.429-3.487-.229-.188-.538-.344-.929-.472-.389-.127-.909-.281-1.559-.462-.649-.179-1.183-.329-1.598-.445,.317-.855,.504-1.484,.561-1.885,.057-.399-.087-.74-.432-1.021-.21-.171-.616-.336-1.221-.497-.603-.158-1.212-.202-1.828-.132-.615,.072-1.087,.307-1.416,.708-1.218,1.491-2.304,4.125-3.259,7.905-.953,3.779-1.299,8.199-1.036,13.259,.142,1.933,.324,3.406,.549,4.418,.225,1.013,.567,1.851,1.028,2.515,.462,.663,1.142,1.364,2.039,2.097,1.243,1.017,2.641,1.752,4.195,2.21,1.555,.458,2.953,.668,4.193,.631,1.243-.036,2.035-.265,2.379-.686,.719-.879,.979-2.531,.778-4.959-.2-2.427-.708-6.3-1.521-11.621,1.976,3.433,3.718,5.766,5.228,7,.956,.782,1.806,1.213,2.551,1.297,.745,.083,1.423-.249,2.032-.993,1.702-2.083,1.846-7.736,.428-16.961l-.036-.029c.285-3.178,.059-6.18-.685-9.004,.323-.417,.79-1.008,1.398-1.773,.609-.765,1.184-1.494,1.727-2.186,.543-.69,1.025-1.319,1.445-1.887,.062,2.051,.224,4.019,.488,5.907,.264,1.889,.641,3.522,1.129,4.899,.489,1.379,1.084,2.467,1.785,3.263,1.189,1.352,2.358,2.158,3.504,2.415,1.147,.258,2.109,.043,2.888-.642,.667-.586,1.187-1.528,1.559-2.825,.371-1.296,.65-2.848,.836-4.656,.187-1.806,.338-4.192,.458-7.158l-.094-.107c.838-3.322,1.078-6.528,.708-9.614,.378-.367,.922-.889,1.63-1.563,.709-.674,1.379-1.315,2.012-1.925,.633-.61,1.196-1.167,1.692-1.671-.223,2.039-.333,4.012-.332,5.917,.002,1.908,.149,3.577,.444,5.008,.295,1.432,.734,2.592,1.318,3.478,.993,1.503,2.039,2.461,3.14,2.874,1.1,.414,2.083,.333,2.948-.238,.742-.489,1.386-1.351,1.933-2.583,.546-1.232,1.036-2.731,1.469-4.496,.365-1.493,.768-3.426,1.202-5.747,.621,.949,1.32,1.793,2.118,2.501,1.285,1.144,2.635,1.887,4.051,2.231,1.416,.345,2.75,.225,4.001-.362,2.213-1.038,3.965-3.958,5.257-8.761,1.718-.696,2.919-1.477,3.604-2.343,.684-.866,1.449-2.315,2.296-4.348l-1.053-2.246Zm-67.66,58.035c-.169,.754-.341,1.236-.513,1.446-.297,.363-.727,.49-1.29,.379-.564-.11-1.151-.416-1.763-.915-1.682-1.375-2.453-3.766-2.312-7.174,.141-3.408,1.104-8.526,2.893-15.353,1.361,5.002,2.313,9.113,2.855,12.329,.543,3.217,.586,6.312,.13,9.288Zm55.872-45.15c-2.057,.964-3.43,.708-4.121-.767-.094-.201-.449-1.684-1.063-4.449-.127-1.084,.05-2.307,.532-3.664,.481-1.357,1.169-2.796,2.063-4.32,.895-1.523,2.007-3.278,3.339-5.265-.25,2.433-.322,4.518-.217,6.254,.104,1.736,.487,3.308,1.147,4.717,.451,.961,1.112,1.878,1.984,2.75-1.482,2.712-2.704,4.293-3.665,4.743Z"/><path class="cls-2" d="M135.258,344.683c-4.936-22.057-9.803-44.13-14.688-66.198-2.556-11.547-5.127-23.091-7.657-34.644-1.802-8.231-.557-16.192,2.265-24.127,.628,.152,1.152,.279,1.773,.429,.385-.816,.768-1.631,1.153-2.445,.37-.782,.742-1.563,1.144-2.409-.651-.243-1.212-.452-1.957-.73,1.116-2.006,2.186-3.929,3.315-5.958-.589-.211-1.144-.428-1.711-.609-9.872-3.14-19.746-6.273-29.617-9.415-3.269-1.04-4.285-3.002-3.248-6.278,2.448-7.729,4.907-15.454,7.361-23.18,.087-.274,.159-.553,.276-.963-.385,.013-.691-.013-.985,.038-10.988,1.891-18.727,7.946-22.277,18.526-3.593,10.707-1.157,20.398,6.812,28.405,4.367,4.389,8.78,8.687,12.279,13.832,3.366,4.95,5.45,10.345,6.538,16.263,6.039,32.854,12.21,65.684,18.337,98.522,.28,1.503,.661,2.995,.818,4.51,.179,1.733,1.092,2.961,2.317,4.051,4.744,4.219,12.035,3.738,16.113-1.13,1.559-1.862,2.208-3.955,1.641-6.49Zm-6.197,2.029c-1.426,2.186-4.434,2.798-6.636,1.351-2.284-1.501-2.89-4.437-1.382-6.692,1.479-2.21,4.419-2.827,6.629-1.39,2.229,1.449,2.855,4.483,1.389,6.731Z"/><path class="cls-2" d="M113.981,176.571c-2.649,8.362-5.244,16.553-7.863,24.817,4.131,1.312,8.137,2.584,12.136,3.854,4.34-10.329,2.04-21.294-4.273-28.671Z"/><g><ellipse class="cls-2" cx="287.775" cy="254.856" rx="116.544" ry="118.929"/><path d="M283.91,133.116c67.916,.322,122.9,55.258,122.698,122.59-.205,68.108-55.21,122.766-123.37,122.59-68.077-.175-123.108-55.453-122.707-123.258,.4-67.551,55.745-122.243,123.379-121.923Zm-.625,2.812c-66.179,.225-120.002,54.071-119.869,119.921,.133,65.963,54.437,120.093,120.094,119.707,66.732-.392,120.716-54.384,120.279-120.297-.437-66.031-54.488-119.556-120.504-119.331Z"/><ellipse class="cls-2" cx="263.39" cy="255.751" rx="118.531" ry="118.091"/><path class="cls-3" d="M233.175,203.122c29.529-16.753,68.967-5.748,85,23.719,16.177,29.731,4.672,67.356-25.732,84.154-28.969,16.006-67.295,5.311-83.621-23.333-16.723-29.342-5.741-67.468,24.353-84.541Z"/><g><path d="M264.044,133.535c67.916,.322,122.9,55.258,122.698,122.59-.205,68.108-55.21,122.766-123.37,122.59-68.077-.175-123.108-55.453-122.707-123.258,.4-67.551,55.745-122.243,123.379-121.923Zm-.625,2.812c-66.179,.225-120.002,54.071-119.869,119.921,.133,65.963,54.437,120.093,120.094,119.707,66.732-.392,120.716-54.384,120.279-120.297-.437-66.031-54.488-119.556-120.504-119.331Z"/><path class="cls-2" d="M263.419,136.347c66.016-.225,120.067,53.3,120.504,119.331,.436,65.914-53.547,119.905-120.279,120.297-65.657,.386-119.961-53.744-120.094-119.707-.132-65.85,53.69-119.696,119.869-119.921Zm117.864,119.51c-.074-64.897-52.642-117.453-117.486-117.457-65.21-.004-117.723,52.689-117.638,118.04,.085,65.249,52.691,117.517,118.214,117.454,64.551-.062,116.984-53,116.91-118.036Z"/><path d="M381.283,255.857c.074,65.036-52.359,117.974-116.91,118.036-65.523,.063-118.129-52.205-118.214-117.454-.085-65.351,52.429-118.044,117.638-118.04,64.844,.004,117.413,52.56,117.486,117.457Zm-224.124-.018c-.251,58.488,47.566,106.497,106.243,106.67,58.722,.173,106.523-47.289,106.807-106.049,.281-58.239-47.159-106.22-105.459-106.661-59.115-.447-107.338,47.081-107.591,106.04Z"/><path d="M186.788,255.467c.435-43.536,35.062-76.816,79.437-76.35,41.011,.431,74.699,35.627,74.389,77.719-.32,43.425-35.014,76.792-79.403,76.366-40.945-.393-74.843-35.8-74.424-77.735Zm3.189,.466c-.027,40.843,33.39,74.399,73.887,74.195,40.377-.203,73.613-33.51,73.613-73.771,0-40.815-33.516-74.457-73.909-74.186-40.487,.271-73.565,33.425-73.591,73.762Z"/><path d="M354.25,283.621c-6.46-.072-12.046-5.73-11.959-12.113,.088-6.466,5.737-11.927,12.221-11.815,6.522,.112,12.091,5.724,11.985,12.078-.105,6.315-5.898,11.92-12.247,11.85Z"/><path d="M354.412,251.738c-6.326,.085-12.16-5.527-12.318-11.852-.159-6.345,5.434-12.036,11.947-12.157,6.421-.119,12.2,5.403,12.34,11.791,.135,6.172-5.705,12.134-11.968,12.218Z"/><path d="M263.258,176.083c-6.701-.017-11.985-5.364-11.925-12.065,.059-6.64,5.525-11.856,12.254-11.692,6.559,.16,11.318,5.037,11.375,11.658,.061,7.007-4.882,12.116-11.704,12.099Z"/><path d="M243.846,169.745c.063,6.342-5.535,12.061-11.891,12.15-6.396,.089-11.978-5.424-12.06-11.91-.083-6.563,5.266-12.045,11.833-12.126,6.468-.08,12.054,5.4,12.118,11.887Z"/><path d="M183.754,198.427c6.295-.056,12.01,5.652,12.041,12.026,.032,6.409-5.521,12.058-11.888,12.093-6.599,.036-11.867-5.24-11.919-11.94-.052-6.635,5.249-12.122,11.766-12.18Z"/><path d="M172.834,228.624c6.519-.093,12.055,5.276,12.175,11.806,.122,6.592-5.167,11.971-11.832,12.035-6.645,.064-12.162-5.208-12.236-11.692-.072-6.329,5.537-12.059,11.893-12.149Z"/><path d="M355.362,301.498c.065,6.871-5.056,12.087-11.837,12.053-6.706-.033-11.985-5.43-11.853-12.117,.124-6.323,5.287-11.567,11.572-11.755,6.661-.2,12.054,5.06,12.118,11.82Z"/><path d="M264.239,336.188c6.794,.057,11.979,5.325,11.874,12.062-.105,6.713-5.419,11.647-12.365,11.481-6.604-.157-11.321-4.985-11.354-11.618-.034-6.942,4.973-11.983,11.845-11.925Z"/><path d="M306.709,169.188c.182,6.356-5.251,12.23-11.567,12.505-6.375,.277-12.01-5.162-12.203-11.78-.195-6.687,4.906-12.239,11.461-12.475,6.218-.224,12.127,5.417,12.308,11.75Z"/><path d="M216.221,185.84c.028,6.354-5.571,12.005-11.929,12.041-6.538,.037-11.865-5.312-11.896-11.945-.031-6.679,5.249-12.07,11.799-12.048,6.478,.023,11.998,5.509,12.026,11.951Z"/><path d="M322.698,197.311c-6.781,.143-11.912-4.999-11.906-11.932,.006-6.618,4.694-11.643,11.177-11.981,6.388-.333,12.327,5.177,12.516,11.612,.193,6.555-5.179,12.161-11.787,12.3Z"/><path d="M172.162,284.381c-6.581-.546-11.76-6.528-11.103-12.825,.662-6.348,6.842-11.504,13.11-10.936,6.415,.581,11.688,6.745,11.068,12.937-.659,6.587-6.443,11.374-13.075,10.824Z"/><path d="M196.017,302.639c-.113,6.866-5.299,11.869-12.123,11.695-6.761-.172-11.636-5.452-11.434-12.385,.19-6.538,5.1-11.234,11.753-11.242,6.89-.008,11.917,5.073,11.804,11.931Z"/><path d="M216.612,327.027c-.098,6.833-5.249,11.937-11.933,11.823-6.401-.109-11.84-5.785-11.71-12.22,.131-6.444,5.833-12.052,12.106-11.904,6.578,.155,11.634,5.545,11.537,12.3Z"/><path d="M323.302,337.968c-6.931,.068-12.08-4.947-12.07-11.754,.01-6.648,5.375-11.907,12.096-11.86,6.468,.046,11.419,4.954,11.592,11.491,.183,6.913-4.745,12.055-11.617,12.122Z"/><path d="M354.977,210.062c-.166,6.883-5.298,11.616-12.34,11.38-6.628-.222-11.233-5.03-11.229-11.725,.004-6.989,4.955-11.88,11.937-11.793,6.858,.086,11.799,5.241,11.632,12.138Z"/><path d="M244.377,342.445c.065,6.786-5.034,12.203-11.593,12.314-6.231,.106-12.008-5.628-12.069-11.98-.062-6.432,5.432-12.195,11.731-12.304,6.492-.113,11.867,5.279,11.931,11.97Z"/><path d="M307.364,342.607c-.141,6.87-5.337,11.705-12.312,11.456-6.449-.231-11.504-5.37-11.501-11.693,.004-6.512,5.605-12.058,12.121-12,6.67,.059,11.83,5.461,11.692,12.237Z"/><path class="cls-2" d="M189.977,255.933c.027-40.337,33.104-73.491,73.591-73.762,40.393-.27,73.908,33.371,73.909,74.186,0,40.26-33.235,73.568-73.613,73.771-40.498,.204-73.915-33.352-73.887-74.195Zm73.5,71.557c39.853,.024,71.769-31.738,71.825-71.477,.055-39.19-31.974-71.137-71.363-71.182-39.783-.045-72.037,32.011-71.887,71.446,.15,39.313,32.121,71.19,71.425,71.214Z"/><path d="M263.478,327.49c-39.304-.024-71.275-31.901-71.425-71.214-.15-39.435,32.104-71.491,71.887-71.446,39.389,.045,71.417,31.992,71.363,71.182-.055,39.74-31.972,71.502-71.825,71.477Zm.206-132.776c-33.981-.004-61.789,27.664-61.784,61.471,.006,33.807,27.829,61.409,61.85,61.359,34.076-.05,61.84-27.655,61.788-61.433-.052-33.795-27.856-61.394-61.855-61.398Z"/></g><text class="cls-1" transform="translate(220.894 288.713) scale(1.33 1)"><tspan x="0" y="0">26</tspan></text></g></svg>